<svg width="50" height="50" viewBox="0 0 50 50" fill="none" xmlns="http://www.w3.org/2000/svg">
<g clip-path="url(#clip0_28_2210)">
<path d="M26.8965 8.74657C26.5031 8.74731 26.1591 8.48162 26.0604 8.1008C25.9617 7.71998 26.1333 7.32064 26.4775 7.13019C33.0672 3.47501 41.1172 0.750872 43.9439 4.07846C44.2534 4.44125 44.2102 4.98623 43.8474 5.2957C43.4846 5.60517 42.9396 5.56194 42.6301 5.19915C41.1784 3.49312 35.4517 4.12674 27.3137 8.64226C27.1856 8.7114 27.0421 8.74727 26.8965 8.74657Z" fill="#E57E25"/>
<path d="M6.24982 31.6981C5.89633 31.6983 5.57854 31.4827 5.4481 31.1541C4.26793 28.1843 6.9412 23.0757 12.6033 17.486C12.947 17.1871 13.464 17.2072 13.7835 17.5319C14.103 17.8566 14.1147 18.3739 13.8102 18.7127C8.13 24.3248 6.32224 28.6852 7.04982 30.517C7.15552 30.7824 7.12288 31.083 6.96267 31.3195C6.80246 31.556 6.53549 31.6978 6.24982 31.6981Z" fill="#E57E25"/>
<path d="M23.3267 8.87177C23.1794 8.87181 23.0346 8.83412 22.906 8.76229C14.5284 4.06574 9.03617 3.56143 7.47496 5.07608C7.13407 5.40936 6.58755 5.40318 6.25427 5.06229C5.921 4.7214 5.92717 4.17487 6.26807 3.8416C9.33272 0.85884 17.3025 3.65022 23.7413 7.25712C24.0843 7.4487 24.2543 7.84787 24.1549 8.22789C24.0555 8.60791 23.7117 8.87267 23.3189 8.87177H23.3267Z" fill="#E57E25"/>
<path d="M43.7834 31.6118C43.5028 31.6118 43.2398 31.4752 43.0784 31.2457C42.917 31.0162 42.8773 30.7225 42.9722 30.4584C43.7851 28.1972 41.123 23.5868 36.1894 18.7127C35.8599 18.3766 35.8608 17.8384 36.1915 17.5035C36.5222 17.1685 37.0604 17.1608 37.4006 17.486C42.9774 22.9955 45.6662 28.0627 44.5937 31.0412C44.4709 31.3832 44.1468 31.6114 43.7834 31.6118Z" fill="#E57E25"/>
<path d="M18.1035 43.103H15.5173C15.0412 43.103 14.6553 42.7171 14.6553 42.241C14.6553 41.7649 15.0412 41.3789 15.5173 41.3789H18.1035C18.5797 41.3789 18.9656 41.7649 18.9656 42.241C18.9656 42.7171 18.5797 43.103 18.1035 43.103Z" fill="#7F8284"/>
<path d="M34.4829 43.103H31.8967C31.4206 43.103 31.0347 42.7171 31.0347 42.241C31.0347 41.7649 31.4206 41.3789 31.8967 41.3789H34.4829C34.959 41.3789 35.345 41.7649 35.345 42.241C35.345 42.7171 34.959 43.103 34.4829 43.103Z" fill="#7F8284"/>
<path d="M40.4483 20.4655C40.1068 24.0008 38.5571 27.3102 36.0603 29.8362C33.436 32.4348 31.9402 35.9622 31.8966 39.6552H18.1035C18.0974 37.8279 17.719 36.021 16.9914 34.3448C16.262 32.666 15.2272 31.1373 13.9397 29.8362C9.9684 25.8076 8.50743 19.9353 10.128 14.5155C11.7486 9.09561 16.1932 4.98916 21.7241 3.80172C22.1224 3.72045 22.4098 3.37199 22.4138 2.96552V2.58621C22.4138 1.15788 23.5717 0 25 0C26.4283 0 27.5862 1.15788 27.5862 2.58621V2.96552C27.5902 3.37199 27.8776 3.72045 28.2759 3.80172C35.9741 5.46264 41.2073 12.6268 40.4483 20.4655Z" fill="#F0C419"/>
<path d="M37.6915 20.4655C37.4582 23.8803 36.2019 27.1456 34.0863 29.8362C31.8632 32.6253 30.6567 36.0885 30.6657 39.6552H19.3346C19.3329 37.8461 19.0239 36.0504 18.4208 34.3448C17.8463 32.7109 16.9987 31.1864 15.9139 29.8362C13.7984 27.1456 12.5421 23.8803 12.3088 20.4655C11.6855 12.3707 16.176 5.39655 22.3088 3.80172C22.6628 3.68038 22.8938 3.33933 22.8751 2.96552V2.58621C22.7587 1.28858 23.7046 0.1374 25.0001 0C25.5896 0.0131824 26.1415 0.291993 26.5019 0.758621C26.9131 1.27829 27.1332 1.92355 27.1251 2.58621V2.96552C27.1065 3.33933 27.3375 3.68038 27.6915 3.80172C33.8243 5.39655 38.3148 12.3707 37.6915 20.4655Z" fill="#F3D55B"/>
<path d="M31.8966 39.6553V44.8277C31.8938 45.7787 31.1235 46.549 30.1725 46.5518H19.8277C18.8766 46.549 18.1064 45.7787 18.1035 44.8277V39.6553H31.8966Z" fill="#95A5A5"/>
<path d="M29.3102 46.9828C29.3102 48.6466 27.3791 50 24.9998 50C22.6205 50 20.6895 48.6466 20.6895 46.9828C20.6891 46.8375 20.7065 46.6928 20.7412 46.5518H29.2584C29.2931 46.6928 29.3105 46.8375 29.3102 46.9828Z" fill="#393F4A"/>
<path d="M10.1264 33.6207C8.86278 33.6904 7.61173 33.3387 6.56954 32.6207C6.3101 32.4373 6.17257 32.1261 6.21164 31.8107C6.2507 31.4954 6.46003 31.2272 6.75638 31.1126C7.05273 30.9981 7.38806 31.0559 7.62902 31.2629C8.86523 32.2259 11.642 32.0948 15.2471 30.9052C18.5061 29.7857 21.6277 28.3007 24.5523 26.4784C25.6868 25.7888 26.7937 25.0655 27.854 24.3345C32.0954 21.4655 35.9302 18.0375 39.2549 14.1431C42.067 10.7164 43.4678 7.65776 43.0032 5.96034C42.8811 5.50246 43.1515 5.03188 43.6085 4.90677C44.0656 4.78167 44.538 5.04894 44.6661 5.50517C45.4739 8.45603 42.8945 12.4259 40.5885 15.2362C37.1617 19.2548 33.2082 22.7925 28.8351 25.7534C27.7514 26.5034 26.6126 27.2431 25.4489 27.9526C22.4105 29.8436 19.1677 31.3841 15.7825 32.5448C13.9627 33.1887 12.0555 33.5514 10.1264 33.6207Z" fill="#F29C1F"/>
<path d="M39.8704 33.6276C37.9397 33.5619 36.0309 33.1961 34.2127 32.5432C30.8296 31.3825 27.5889 29.8425 24.5523 27.9526C23.3868 27.2423 22.248 26.5026 21.1644 25.7518C16.7909 22.7909 12.8371 19.2532 9.41008 15.2345C7.07646 12.3897 4.47905 8.38022 5.35836 5.42505C5.49665 4.97202 5.97454 4.71543 6.42856 4.85043C6.88258 4.98543 7.14264 5.46144 7.01094 5.91643C6.51008 7.60522 7.90577 10.6802 10.7463 14.1414C14.0704 18.036 17.9047 21.4643 22.1454 24.3337C23.2023 25.0656 24.3127 25.788 25.4489 26.4794C28.3715 28.3006 31.4911 29.7847 34.748 30.9035C38.523 32.1492 41.4368 32.2251 42.5463 31.1069C42.8819 30.7691 43.4279 30.7674 43.7657 31.1031C44.1035 31.4387 44.1052 31.9847 43.7696 32.3225C42.6984 33.2644 41.2928 33.7349 39.8704 33.6276Z" fill="#F29C1F"/>
<path d="M6.46548 34.4827C8.13186 34.4827 9.48272 33.1319 9.48272 31.4655C9.48272 29.7991 8.13186 28.4482 6.46548 28.4482C4.79911 28.4482 3.44824 29.7991 3.44824 31.4655C3.44824 33.1319 4.79911 34.4827 6.46548 34.4827Z" fill="#3B97D3"/>
<path d="M6.46548 7.75811C8.13186 7.75811 9.48272 6.40725 9.48272 4.74087C9.48272 3.0745 8.13186 1.72363 6.46548 1.72363C4.79911 1.72363 3.44824 3.0745 3.44824 4.74087C3.44824 6.40725 4.79911 7.75811 6.46548 7.75811Z" fill="#3B97D3"/>
<path d="M43.5343 34.4827C45.2007 34.4827 46.5516 33.1319 46.5516 31.4655C46.5516 29.7991 45.2007 28.4482 43.5343 28.4482C41.868 28.4482 40.5171 29.7991 40.5171 31.4655C40.5171 33.1319 41.868 34.4827 43.5343 34.4827Z" fill="#3B97D3"/>
<path d="M43.5343 7.75811C45.2007 7.75811 46.5516 6.40725 46.5516 4.74087C46.5516 3.0745 45.2007 1.72363 43.5343 1.72363C41.868 1.72363 40.5171 3.0745 40.5171 4.74087C40.5171 6.40725 41.868 7.75811 43.5343 7.75811Z" fill="#3B97D3"/>
<path d="M14.2112 14.4337C13.9123 14.4336 13.6347 14.2788 13.4777 14.0245C13.3206 13.7701 13.3066 13.4526 13.4405 13.1854C15.0592 9.94344 17.9645 7.52986 21.4482 6.5328C21.7479 6.43744 22.0757 6.51281 22.3036 6.72945C22.5315 6.9461 22.6234 7.26966 22.5433 7.57376C22.4633 7.87785 22.224 8.11422 21.9189 8.19056C18.9009 9.05564 16.3845 11.1477 14.9827 13.9569C14.8367 14.2492 14.5379 14.4338 14.2112 14.4337Z" fill="white"/>
</g>
<defs>
<clipPath id="clip0_28_2210">
<rect width="50" height="50" fill="white"/>
</clipPath>
</defs>
</svg>
